<svg xmlns="http://www.w3.org/2000/svg" width="45" height="35">
    <path fill="#555" fill-rule="evenodd" d="M36.801 29.578V17.836l8.204-5.368v22.477l-8.204-5.367zm-3.215-.215v.774c0 2.687-2.158 4.864-4.822 4.864H4.817c-2.663 0-4.823-2.177-4.823-4.864V17.164c0-2.686 2.16-4.864 4.823-4.864h23.947c2.664 0 4.822 2.178 4.822 4.864v.886c.143-.031.292-.047.444-.047 1.164 0 2.106.951 2.106 2.125v7.157c0 1.174-.942 2.125-2.106 2.125-.152 0-.301-.016-.444-.047zM14.961 5.758c0-3.181 2.556-5.759 5.71-5.759 3.152 0 5.709 2.578 5.709 5.759 0 3.181-2.557 5.759-5.709 5.759-3.154 0-5.71-2.578-5.71-5.759zm-13.415 0c0-3.181 2.556-5.759 5.71-5.759s5.71 2.578 5.71 5.759c0 3.181-2.556 5.759-5.71 5.759s-5.71-2.578-5.71-5.759z"/>
</svg>
