<svg xmlns="http://www.w3.org/2000/svg" width="17" height="18">
    <path fill="#85B6D1" fill-rule="evenodd" d="M12.545 4.718c-.994 0-1.909.321-2.65.857L6.073 3.452c.024-.154.041-.31.041-.471 0-1.645-1.368-2.978-3.055-2.978C1.371.003.003 1.336.003 2.981c0 1.645 1.368 2.978 3.056 2.978.793 0 1.514-.297 2.057-.78l3.457 1.92c-.307.59-.484 1.256-.484 1.963 0 .522.1 1.021.273 1.484l-3.417 2.133c-.52-.399-1.174-.639-1.886-.639-1.688 0-3.056 1.334-3.056 2.979 0 1.644 1.368 2.978 3.056 2.978 1.687 0 3.055-1.334 3.055-2.978 0-.237-.031-.466-.085-.687l3.43-2.141c.801.751 1.887 1.214 3.086 1.214 2.46 0 4.455-1.945 4.455-4.343 0-2.399-1.995-4.344-4.455-4.344z"/>
</svg>
