<svg xmlns="http://www.w3.org/2000/svg" width="18" height="18">
    <path fill="#A6A6A6" fill-rule="evenodd" d="M8.733.848c.561.328.979.792 1.251 1.385.275.593.411 1.198.411 1.81 0 .72-.129 1.292-.387 1.719-.258.424-.542.787-.855 1.085-.313.298-.595.57-.848.809-.256.244-.382.544-.382.902 0 .345.172.659.516.943.344.283.721.598 1.137.942.413.345.791.757 1.135 1.236.344.478.516 1.097.516 1.856 0 .781-.196 1.454-.586 2.016-.391.563-.884 1.027-1.481 1.393-.597.363-1.261.631-1.992.802-.729.173-1.439.26-2.126.26-.514 0-1.066-.059-1.656-.178-.59-.12-1.137-.312-1.641-.582-.502-.267-.918-.611-1.248-1.033-.327-.423-.489-.948-.489-1.576 0-.764.22-1.402.662-1.906.439-.506.984-.909 1.631-1.212.65-.305 1.348-.518 2.098-.645.75-.126 1.429-.197 2.038-.213-.18-.22-.342-.466-.488-.734-.143-.269-.215-.56-.215-.874 0-.176.024-.333.077-.471.05-.139.105-.291.169-.46-.126.031-.255.045-.394.045h-.404c-.53 0-1.036-.089-1.521-.267-.485-.181-.906-.437-1.264-.765-.361-.33-.65-.719-.867-1.167-.22-.448-.328-.947-.328-1.501 0-.52.096-1.01.292-1.469.196-.462.456-.88.786-1.259.327-.38.709-.701 1.146-.966.438-.265.906-.455 1.405-.568.688-.14 1.374-.208 2.062-.208h4.814l-1.488.851H8.733zm.936 13.63c0-.375-.084-.718-.253-1.03-.167-.309-.373-.586-.619-.827-.246-.242-.523-.467-.827-.677-.303-.211-.602-.411-.891-.603-.107-.017-.224-.028-.344-.035-.122-.007-.236-.012-.346-.012-.444 0-.925.047-1.441.143-.513.096-.986.253-1.416.471-.43.221-.784.509-1.066.868-.282.361-.42.809-.42 1.345 0 .521.136.966.408 1.332.273.37.614.67 1.02.905.404.232.853.401 1.341.504.487.103.946.154 1.376.154.399 0 .805-.044 1.223-.131.418-.086.795-.234 1.13-.438.337-.202.607-.464.814-.785.206-.322.311-.718.311-1.184zM6.32 7.524c.747 0 1.271-.234 1.569-.708.296-.469.445-1.033.445-1.692 0-.408-.058-.861-.17-1.362-.115-.502-.289-.978-.528-1.426-.237-.447-.542-.82-.913-1.115-.37-.294-.81-.444-1.318-.444-.366 0-.686.071-.961.209-.272.138-.497.326-.671.563-.177.236-.311.508-.399.816-.091.307-.134.626-.134.954 0 .405.067.855.203 1.35.136.495.339.954.605 1.379.265.426.587.778.965 1.057.38.281.815.419 1.307.419zm11.675-4.942h-2.518V.088h-1.252v2.494h-2.518V3.79h2.518v2.471h1.252V3.79h2.518V2.582z"/>
</svg>
