<svg xmlns="http://www.w3.org/2000/svg" width="12" height="10">
    <path fill="#FFF" fill-rule="evenodd" d="M11.908 4.547c.013.031.01.064.02.096.036.111.072.222.072.345 0 .122-.036.234-.072.345-.01.031-.007.065-.02.096-.061.144-.149.274-.261.382l-.001.001-3.96 3.836c-.469.453-1.229.453-1.697 0-.469-.454-.469-1.19 0-1.644L7.903 6.15H1.2C.537 6.15 0 5.63 0 4.988c0-.642.537-1.163 1.2-1.163h6.703L5.989 1.972c-.469-.454-.469-1.19 0-1.644.468-.454 1.228-.454 1.697 0l3.96 3.835.001.002c.112.108.2.238.261.382z"/>
</svg>
