<svg 
 xmlns="http://www.w3.org/2000/svg"
 xmlns:xlink="http://www.w3.org/1999/xlink"
 width="18px" height="18px">
<path fill-rule="evenodd"  fill="rgb(166, 166, 166)"
 d="M9.005,0.002 C10.251,0.002 11.421,0.236 12.508,0.705 C13.598,1.176 14.552,1.817 15.372,2.632 C16.191,3.446 16.832,4.399 17.298,5.493 C17.763,6.584 17.997,7.756 17.997,9.001 C17.997,10.246 17.763,11.416 17.298,12.509 C16.832,13.600 16.191,14.556 15.372,15.369 C14.552,16.185 13.598,16.826 12.508,17.295 C11.421,17.763 10.251,17.998 9.005,17.998 C8.562,17.998 8.127,17.966 7.705,17.904 C7.279,17.839 6.856,17.747 6.436,17.628 C6.608,17.364 6.783,17.065 6.960,16.725 C7.137,16.389 7.270,16.045 7.360,15.691 L7.484,15.227 C7.530,15.057 7.589,14.809 7.665,14.485 C7.739,14.163 7.849,13.743 7.992,13.223 C8.164,13.531 8.449,13.798 8.847,14.018 C9.245,14.239 9.688,14.349 10.178,14.349 C10.899,14.349 11.559,14.198 12.161,13.888 C12.761,13.580 13.274,13.150 13.699,12.599 C14.122,12.047 14.453,11.395 14.690,10.639 C14.926,9.883 15.046,9.067 15.046,8.190 C15.046,7.528 14.910,6.887 14.644,6.262 C14.377,5.640 13.993,5.086 13.490,4.604 C12.987,4.119 12.387,3.735 11.688,3.455 C10.989,3.172 10.208,3.032 9.343,3.032 C8.284,3.032 7.351,3.204 6.544,3.549 C5.737,3.896 5.063,4.339 4.526,4.884 C3.990,5.428 3.586,6.033 3.314,6.692 C3.045,7.351 2.910,8.006 2.910,8.652 C2.910,9.433 3.059,10.136 3.360,10.763 C3.661,11.390 4.126,11.831 4.758,12.086 C4.990,12.162 5.144,12.086 5.220,11.861 C5.234,11.785 5.261,11.668 5.298,11.505 C5.335,11.344 5.369,11.222 5.399,11.140 C5.429,11.020 5.434,10.933 5.411,10.880 C5.388,10.830 5.339,10.747 5.264,10.632 C4.866,10.191 4.668,9.607 4.668,8.888 C4.668,8.316 4.772,7.772 4.976,7.250 C5.183,6.726 5.479,6.269 5.861,5.874 C6.245,5.481 6.712,5.164 7.259,4.930 C7.808,4.693 8.419,4.574 9.095,4.574 C9.697,4.574 10.231,4.663 10.702,4.838 C11.171,5.015 11.566,5.258 11.890,5.564 C12.212,5.874 12.456,6.235 12.616,6.646 C12.777,7.060 12.858,7.514 12.858,8.008 C12.858,8.656 12.789,9.270 12.651,9.856 C12.511,10.441 12.315,10.954 12.058,11.388 C11.803,11.822 11.504,12.169 11.157,12.424 C10.812,12.679 10.426,12.808 9.996,12.808 C9.764,12.808 9.548,12.760 9.348,12.665 C9.150,12.571 8.980,12.445 8.842,12.284 C8.702,12.121 8.608,11.937 8.555,11.730 C8.502,11.526 8.507,11.298 8.567,11.050 C8.702,10.480 8.868,9.911 9.068,9.343 C9.265,8.776 9.366,8.286 9.366,7.875 C9.366,7.507 9.265,7.191 9.068,6.929 C8.868,6.667 8.562,6.534 8.148,6.534 C7.654,6.534 7.240,6.754 6.909,7.193 C6.578,7.632 6.413,8.183 6.413,8.842 C6.399,9.015 6.406,9.185 6.436,9.350 C6.452,9.483 6.479,9.637 6.521,9.805 C6.562,9.975 6.620,10.131 6.695,10.274 C6.447,11.330 6.247,12.176 6.093,12.808 C5.939,13.437 5.824,13.929 5.748,14.283 C5.659,14.696 5.592,14.997 5.546,15.183 C5.470,15.521 5.420,15.870 5.394,16.231 C5.367,16.592 5.362,16.925 5.376,17.233 C4.597,16.895 3.875,16.447 3.213,15.886 C2.554,15.328 1.983,14.694 1.508,13.984 C1.029,13.274 0.659,12.497 0.397,11.652 C0.133,10.807 0.002,9.924 0.002,9.001 C0.002,7.756 0.237,6.584 0.708,5.493 C1.177,4.399 1.818,3.446 2.634,2.632 C3.448,1.817 4.401,1.176 5.496,0.705 C6.588,0.236 7.757,0.002 9.005,0.002 Z"/>
</svg>