<svg 
 xmlns="http://www.w3.org/2000/svg"
 xmlns:xlink="http://www.w3.org/1999/xlink"
 width="14px" height="11px">
<path fill-rule="evenodd"  fill="rgb(255, 255, 255)"
 d="M13.892,5.131 C13.951,5.179 13.986,5.239 13.995,5.312 C14.006,5.383 13.986,5.451 13.936,5.511 L13.601,5.883 C13.552,5.949 13.479,5.982 13.385,5.982 L12.902,5.982 C12.823,5.982 12.759,5.962 12.715,5.925 L7.185,1.656 C7.060,1.562 6.937,1.562 6.813,1.656 L1.282,5.925 C1.243,5.962 1.179,5.982 1.095,5.982 L0.611,5.982 C0.523,5.982 0.450,5.949 0.395,5.883 L0.061,5.511 C0.011,5.455 -0.009,5.390 0.000,5.317 C0.011,5.246 0.046,5.183 0.105,5.131 L6.559,0.146 C6.694,0.052 6.840,0.002 6.998,-0.002 C7.162,-0.002 7.308,0.048 7.438,0.146 L9.224,1.522 L9.224,0.806 C9.224,0.730 9.253,0.667 9.309,0.613 C9.367,0.558 9.435,0.532 9.514,0.532 L11.174,0.532 C11.253,0.532 11.320,0.558 11.371,0.613 C11.423,0.667 11.450,0.730 11.450,0.806 L11.450,3.250 L13.892,5.131 L13.892,5.131 ZM12.015,6.101 L12.015,10.469 C12.015,10.624 11.962,10.751 11.856,10.852 C11.748,10.953 11.614,11.004 11.450,11.004 L8.309,11.004 L8.309,7.506 L5.689,7.506 L5.689,11.004 L2.547,11.004 C2.383,11.004 2.248,10.953 2.142,10.852 C2.035,10.751 1.981,10.624 1.981,10.469 L1.981,6.101 L6.998,2.217 L12.015,6.101 Z"/>
</svg>