<svg 
 xmlns="http://www.w3.org/2000/svg"
 xmlns:xlink="http://www.w3.org/1999/xlink"
 width="9px" height="8px">
<path fill-rule="evenodd"  fill="rgb(136, 135, 136)"
 d="M9.000,2.354 C9.000,2.460 8.981,2.567 8.967,2.674 C8.961,2.718 8.962,2.764 8.953,2.808 C8.489,5.278 4.500,8.000 4.500,8.000 C4.500,8.000 0.511,5.278 0.047,2.808 C0.038,2.764 0.039,2.718 0.033,2.674 C0.019,2.567 -0.000,2.460 -0.000,2.354 C-0.000,2.351 0.001,2.348 0.001,2.345 C0.001,2.341 -0.000,2.337 -0.000,2.333 C-0.000,1.045 1.007,-0.000 2.250,-0.000 C3.228,-0.000 4.145,0.652 4.496,1.556 C4.848,0.652 5.771,-0.000 6.750,-0.000 C7.993,-0.000 9.000,1.045 9.000,2.333 C9.000,2.337 8.999,2.340 8.999,2.344 C8.999,2.348 9.000,2.350 9.000,2.354 Z"/>
</svg>