<svg xmlns="http://www.w3.org/2000/svg" width="28" height="27">
    <path fill="#B3B3B3" fill-rule="evenodd" d="M14.365 0C6.902 0 .851 6.046.851 13.5c0 7.456 6.051 13.499 13.514 13.499 7.463 0 13.512-6.043 13.512-13.499 0-7.454-6.049-13.5-13.512-13.5zm6.807 10.779c.007.146.01.292.01.44 0 4.496-3.425 9.68-9.689 9.68-1.923 0-3.714-.563-5.221-1.529.267.031.538.047.812.047 1.596 0 3.065-.544 4.23-1.456-1.49-.028-2.748-1.011-3.181-2.362.208.04.421.061.641.061.31 0 .611-.042.897-.12-1.558-.313-2.732-1.688-2.732-3.335v-.043c.459.254.984.407 1.543.426-.914-.612-1.515-1.652-1.515-2.832 0-.624.168-1.209.461-1.711 1.679 2.058 4.189 3.412 7.019 3.554-.058-.249-.088-.508-.088-.775 0-1.878 1.525-3.402 3.406-3.402.979 0 1.864.414 2.485 1.074.776-.152 1.505-.435 2.163-.825-.254.795-.794 1.461-1.498 1.882.69-.082 1.346-.265 1.957-.536-.456.682-1.034 1.282-1.7 1.762z"/>
</svg>
