<svg xmlns="http://www.w3.org/2000/svg" width="44" height="52">
    <path fill="#BE6CB3" fill-rule="evenodd" d="M34.34 45.73c-.057 0-.113-.007-.17-.009v.787c0 2.51-2.072 4.564-4.602 4.564H4.597c-2.531 0-4.602-2.054-4.602-4.564V29.272c0-2.51 2.071-4.564 4.602-4.564h24.971c2.26 0 4.143 1.641 4.522 3.78.084-.003.166-.013.25-.013 4.797 0 8.699 3.87 8.699 8.627 0 4.758-3.902 8.628-8.699 8.628zm-5.134 3.115H4.736c-1.488 0-2.801-.731-3.625-1.839.649 1.582 2.214 2.706 4.034 2.706h23.649c1.82 0 3.382-1.124 4.034-2.706-.824 1.108-2.137 1.839-3.622 1.839zm5.134-17.098c-.058 0-.113.016-.17.017v10.678c.057.002.112.017.17.017 2.979 0 5.401-2.402 5.401-5.357 0-2.952-2.422-5.355-5.401-5.355zm-9.203-15.343c-5.806 1.206-7.371-1.791-7.416-3.136-.105-3.17 1.93-4.208 3.217-6.587 2.352-4.354-3.505-6.986-7.004-5.81 2.08-1.194 5.243-1.19 8.028.144 1.793.857 2.845 3.097 2.179 5.078-.749 2.23-2.93 3.565-3.814 5.869-.804 2.092 1.16 4.552 4.81 4.442zm-9.142-7.297c-.894 2.659-3.496 4.252-4.551 7-.958 2.493 1.385 5.428 5.737 5.297-6.924 1.439-8.791-2.135-8.844-3.74-.125-3.78 2.302-5.018 3.836-7.856 2.805-5.193-4.179-8.332-8.353-6.929 2.481-1.424 6.254-1.42 9.576.169 2.136 1.022 3.393 3.697 2.599 6.059z"/>
</svg>
