<svg xmlns="http://www.w3.org/2000/svg" width="28" height="27">
    <path fill="#B3B3B3" fill-rule="evenodd" d="M14.461 0C6.998 0 .948 6.044.948 13.5c0 5.527 3.327 10.276 8.088 12.364-.038-.943-.007-2.074.235-3.1l1.739-7.355s-.432-.862-.432-2.137c0-2 1.161-3.494 2.606-3.494 1.229 0 1.823.922 1.823 2.026 0 1.235-.788 3.081-1.193 4.791-.338 1.432.718 2.6 2.133 2.6 2.56 0 4.284-3.285 4.284-7.177 0-2.958-1.994-5.173-5.622-5.173-4.099 0-6.653 3.053-6.653 6.464 0 1.177.347 2.006.891 2.648.25.295.285.414.194.752-.065.249-.214.847-.275 1.084-.09.342-.367.464-.677.338-1.888-.77-2.767-2.835-2.767-5.157 0-3.835 3.237-8.434 9.658-8.434 5.159 0 8.554 3.73 8.554 7.734 0 5.295-2.947 9.252-7.291 9.252-1.459 0-2.831-.788-3.301-1.683 0 0-.785 3.111-.951 3.711-.286 1.041-.847 2.081-1.36 2.892 1.215.359 2.499.553 3.83.553 7.462 0 13.512-6.043 13.512-13.499S21.923 0 14.461 0z"/>
</svg>
