<svg 
 xmlns="http://www.w3.org/2000/svg"
 xmlns:xlink="http://www.w3.org/1999/xlink"
 width="25px" height="17px">
<path fill-rule="evenodd"  fill="rgb(255, 255, 255)"
 d="M24.170,7.288 C24.378,7.253 24.568,7.288 24.740,7.387 C24.911,7.486 24.997,7.654 24.997,7.891 C24.997,8.142 24.878,8.361 24.638,8.545 C24.397,8.727 24.120,8.889 23.805,9.033 C23.487,9.178 23.158,9.290 22.820,9.370 C22.483,9.447 22.217,9.495 22.029,9.514 C21.639,10.726 21.039,11.798 20.226,12.730 C19.410,13.664 18.461,14.443 17.377,15.065 C16.292,15.690 15.125,16.168 13.878,16.499 C12.630,16.832 11.388,16.998 10.149,16.998 C8.171,16.998 6.293,16.589 4.520,15.772 C2.750,14.959 1.281,13.766 0.116,12.194 C0.044,12.055 0.006,11.943 0.006,11.855 C0.006,11.681 0.066,11.534 0.188,11.417 C0.310,11.297 0.465,11.238 0.642,11.238 C0.769,11.238 0.910,11.291 1.062,11.396 C2.174,12.348 3.474,12.818 4.957,12.810 C5.488,12.810 6.019,12.744 6.550,12.613 C7.078,12.482 7.562,12.274 8.005,11.985 C7.745,11.847 7.529,11.662 7.363,11.435 C7.195,11.209 7.112,10.955 7.112,10.678 C7.112,10.477 7.148,10.306 7.220,10.165 C7.059,10.114 6.854,10.026 6.616,9.898 C6.379,9.773 6.146,9.623 5.925,9.455 C5.704,9.284 5.518,9.098 5.369,8.889 C5.220,8.687 5.145,8.484 5.145,8.284 C5.145,8.142 5.189,8.019 5.280,7.910 C5.372,7.801 5.485,7.704 5.621,7.616 C5.250,7.398 4.907,7.075 4.589,6.648 C4.274,6.220 4.116,5.793 4.116,5.366 C4.116,5.078 4.265,4.891 4.564,4.803 C4.246,4.496 3.994,4.144 3.812,3.744 C3.624,3.343 3.532,2.927 3.532,2.500 C3.532,2.300 3.574,2.119 3.662,1.956 C3.745,1.795 3.917,1.715 4.169,1.715 C4.332,1.715 4.714,1.833 5.308,2.068 C5.903,2.302 6.550,2.567 7.242,2.860 C7.933,3.151 8.594,3.448 9.228,3.744 C9.859,4.040 10.301,4.248 10.556,4.371 C10.782,4.494 10.998,4.630 11.200,4.782 C11.402,4.934 11.604,5.094 11.803,5.260 C11.983,4.817 12.198,4.352 12.442,3.866 C12.685,3.383 12.956,2.919 13.255,2.473 C13.554,2.030 13.883,1.608 14.245,1.219 C14.605,0.824 15.009,0.504 15.452,0.250 C15.523,0.197 15.631,0.170 15.778,0.170 C15.938,0.170 16.060,0.205 16.143,0.274 C16.287,0.223 16.475,0.165 16.707,0.098 C16.934,0.034 17.128,0.002 17.283,0.002 C17.542,0.002 17.736,0.119 17.863,0.354 C18.145,0.354 18.400,0.423 18.632,0.557 C18.859,0.693 18.975,0.912 18.975,1.219 C18.975,1.489 18.854,1.721 18.610,1.910 C19.479,2.287 20.198,2.831 20.773,3.546 C21.349,4.261 21.758,5.057 22.002,5.927 C22.054,5.946 22.157,5.954 22.311,5.954 C22.737,5.954 23.136,5.882 23.506,5.737 C23.877,5.593 24.134,5.521 24.278,5.521 C24.441,5.521 24.585,5.585 24.707,5.711 C24.828,5.839 24.889,5.980 24.889,6.138 C24.889,6.338 24.801,6.549 24.624,6.770 C24.447,6.994 24.297,7.165 24.170,7.288 Z"/>
</svg>