<svg 
 xmlns="http://www.w3.org/2000/svg"
 xmlns:xlink="http://www.w3.org/1999/xlink"
 width="8px" height="8px">
<path fill-rule="evenodd"  fill="rgb(136, 135, 136)"
 d="M7.500,6.710 L6.500,6.710 L6.500,8.000 L5.250,6.710 L2.000,6.710 C1.724,6.710 1.500,6.478 1.500,6.193 L1.500,2.064 C1.500,1.779 1.724,1.548 2.000,1.548 L7.500,1.548 C7.776,1.548 8.000,1.779 8.000,2.064 L8.000,6.193 C8.000,6.478 7.776,6.710 7.500,6.710 ZM1.000,2.064 L1.000,4.645 L0.500,4.645 C0.224,4.645 -0.000,4.414 -0.000,4.129 L-0.000,0.516 C-0.000,0.231 0.224,-0.000 0.500,-0.000 L5.500,-0.000 C5.776,-0.000 6.000,0.231 6.000,0.516 L6.000,1.032 L2.000,1.032 C0.995,1.032 1.000,1.027 1.000,2.064 Z"/>
</svg>