<svg xmlns="http://www.w3.org/2000/svg" width="8" height="8">
    <path fill="#888788" fill-rule="evenodd" d="M4 8C1.791 8 0 6.209 0 4s1.791-4 4-4 4 1.791 4 4-1.791 4-4 4zM4 .533C2.085.533.533 2.085.533 4 .533 5.914 2.085 7.467 4 7.467S7.467 5.914 7.467 4C7.467 2.085 5.915.533 4 .533zm2.933 3.734c-.147 0-.266-.12-.266-.267 0-.147.119-.267.266-.267.148 0 .267.12.267.267 0 .147-.119.267-.267.267zm-.866 2.066c-.148 0-.267-.119-.267-.266 0-.148.119-.267.267-.267.147 0 .266.119.266.267 0 .147-.119.266-.266.266zm0-4.133c-.148 0-.267-.119-.267-.267 0-.147.119-.266.267-.266.147 0 .266.119.266.266 0 .148-.119.267-.266.267zm-1 2.067h-.8v.266c0 .148-.12.267-.267.267-.147 0-.267-.119-.267-.267v-.266h-.266c-.148 0-.267-.12-.267-.267 0-.147.119-.267.267-.267h.266V2.4c0-.147.12-.267.267-.267.147 0 .267.12.267.267v1.333h.8c.147 0 .266.12.266.267 0 .147-.119.267-.266.267zM4 1.333c-.147 0-.267-.119-.267-.266C3.733.919 3.853.8 4 .8c.147 0 .267.119.267.267 0 .147-.12.266-.267.266zm-2.067 5c-.147 0-.266-.119-.266-.266 0-.148.119-.267.266-.267.148 0 .267.119.267.267 0 .147-.119.266-.267.266zm0-4.133c-.147 0-.266-.119-.266-.267 0-.147.119-.266.266-.266.148 0 .267.119.267.266 0 .148-.119.267-.267.267zM4 6.667c.147 0 .267.119.267.266 0 .148-.12.267-.267.267-.147 0-.267-.119-.267-.267 0-.147.12-.266.267-.266zm-2.933-2.4C.919 4.267.8 4.147.8 4c0-.147.119-.267.267-.267.147 0 .266.12.266.267 0 .147-.119.267-.266.267z"/>
</svg>
