<svg xmlns="http://www.w3.org/2000/svg" width="34" height="28">
    <path fill="#BE6CB3" fill-rule="evenodd" d="M26.325 14.891c.399.441.603.951.617 1.534.012.583-.195 1.085-.617 1.501l-9.541 9.359c-.422.415-.943.637-1.569.659-.621.026-1.124-.196-1.513-.659L1.554 13.962c-.426-.466-.792-1.049-1.099-1.752-.307-.7-.463-1.352-.463-1.946V2.158c0-.586.211-1.093.637-1.519.422-.43.943-.645 1.557-.645h8.235c.3 0 .625.037.969.11.344.069.692.182 1.044.327.351.15.68.318.987.503.307.182.559.383.755.598l12.149 13.359zM5.667 7.674c.57 0 1.066-.208 1.487-.623.426-.419.637-.907.637-1.465 0-.582-.211-1.081-.637-1.493-.421-.408-.917-.616-1.487-.616-.592 0-1.095.208-1.513.616-.418.412-.625.911-.625 1.493 0 .558.207 1.046.625 1.465.418.415.921.623 1.513.623zm27.712 7.25c.422.444.633.962.633 1.556 0 .593-.211 1.1-.633 1.519l-9.503 9.355c-.422.419-.944.634-1.558.645-.618.011-1.139-.204-1.561-.645l-.218-.248 9.322-9.18c.422-.416.633-.918.626-1.508-.008-.59-.215-1.101-.626-1.527L17.709 1.532c-.374-.416-.881-.754-1.52-1.009-.644-.255-1.259-.419-1.85-.492h3.155c.614 0 1.295.145 2.039.437.743.291 1.309.659 1.694 1.1l12.152 13.356z"/>
</svg>
