<svg xmlns="http://www.w3.org/2000/svg" width="85" height="85">
    <path fill="#88B9D4" fill-rule="evenodd" d="M42.504 84.985C19.076 84.985.019 65.926.019 42.5.019 19.07 19.076.009 42.504.009 65.931.009 84.988 19.07 84.988 42.5c0 23.426-19.057 42.485-42.484 42.485zm0-78.681C22.548 6.304 6.311 22.541 6.311 42.5c0 19.956 16.237 36.19 36.193 36.19S78.696 62.456 78.696 42.5c0-19.959-16.236-36.196-36.192-36.196zM27.132 69.349V15.648L72.023 42.5 27.132 69.349zm6.292-42.603v31.505L59.762 42.5 33.424 26.746z" opacity=".588"/>
</svg>
