<svg 
 xmlns="http://www.w3.org/2000/svg"
 xmlns:xlink="http://www.w3.org/1999/xlink"
 width="9px" height="18px">
<path fill-rule="evenodd"  fill="rgb(166, 166, 166)"
 d="M6.575,3.319 C6.173,3.319 5.925,3.380 5.830,3.507 C5.735,3.633 5.689,3.894 5.689,4.285 L5.689,5.296 L8.224,5.296 C8.331,5.296 8.440,5.350 8.553,5.457 C8.630,5.533 8.667,5.645 8.667,5.790 L8.474,8.144 C8.474,8.268 8.433,8.365 8.349,8.440 C8.266,8.512 8.164,8.548 8.041,8.548 L5.689,8.548 L5.689,17.558 C5.689,17.682 5.645,17.788 5.559,17.874 C5.471,17.963 5.366,18.006 5.243,18.006 L2.312,18.006 C2.191,18.006 2.084,17.963 1.999,17.874 C1.913,17.788 1.869,17.682 1.869,17.558 L1.869,8.548 L0.447,8.548 C0.326,8.548 0.220,8.505 0.134,8.416 C0.048,8.327 0.004,8.222 0.004,8.100 L0.004,5.767 C0.004,5.645 0.048,5.535 0.134,5.439 C0.220,5.343 0.326,5.296 0.447,5.296 L1.869,5.296 L1.869,4.123 C1.869,1.380 3.256,0.004 6.030,-0.003 C6.962,-0.003 7.841,0.116 8.667,0.353 C8.917,0.431 9.029,0.595 8.996,0.848 L8.690,3.134 C8.660,3.258 8.600,3.357 8.509,3.434 C8.389,3.511 8.268,3.533 8.157,3.502 C7.890,3.441 7.616,3.394 7.331,3.364 C7.048,3.333 6.795,3.319 6.575,3.319 Z"/>
</svg>