<svg 
 xmlns="http://www.w3.org/2000/svg"
 xmlns:xlink="http://www.w3.org/1999/xlink"
 width="11px" height="16px">
<path fill-rule="evenodd"  fill="rgb(255, 255, 255)"
 d="M-0.005,-0.001 L-0.005,15.996 L11.004,15.996 L11.004,-0.001 L-0.005,-0.001 ZM1.619,14.934 C1.619,15.039 1.538,15.124 1.439,15.124 L0.627,15.124 C0.527,15.124 0.446,15.039 0.446,14.934 L0.446,14.536 C0.446,14.431 0.527,14.346 0.627,14.346 L1.439,14.346 C1.538,14.346 1.619,14.431 1.619,14.536 L1.619,14.934 ZM1.619,12.670 C1.619,12.775 1.538,12.860 1.439,12.860 L0.627,12.860 C0.527,12.860 0.446,12.775 0.446,12.670 L0.446,12.272 C0.446,12.167 0.527,12.081 0.627,12.081 L1.439,12.081 C1.538,12.081 1.619,12.167 1.619,12.272 L1.619,12.670 ZM1.619,10.406 C1.619,10.511 1.538,10.596 1.439,10.596 L0.627,10.596 C0.527,10.596 0.446,10.511 0.446,10.406 L0.446,10.008 C0.446,9.903 0.527,9.817 0.627,9.817 L1.439,9.817 C1.538,9.817 1.619,9.903 1.619,10.008 L1.619,10.406 ZM1.619,8.142 C1.619,8.247 1.538,8.332 1.439,8.332 L0.627,8.332 C0.527,8.332 0.446,8.247 0.446,8.142 L0.446,7.744 C0.446,7.639 0.527,7.553 0.627,7.553 L1.439,7.553 C1.538,7.553 1.619,7.639 1.619,7.744 L1.619,8.142 ZM1.619,5.877 C1.619,5.982 1.538,6.068 1.439,6.068 L0.627,6.068 C0.527,6.068 0.446,5.982 0.446,5.877 L0.446,5.480 C0.446,5.375 0.527,5.289 0.627,5.289 L1.439,5.289 C1.538,5.289 1.619,5.375 1.619,5.480 L1.619,5.877 ZM1.619,3.613 C1.619,3.718 1.538,3.804 1.439,3.804 L0.627,3.804 C0.527,3.804 0.446,3.718 0.446,3.613 L0.446,3.215 C0.446,3.110 0.527,3.025 0.627,3.025 L1.439,3.025 C1.538,3.025 1.619,3.110 1.619,3.215 L1.619,3.613 ZM1.619,1.349 C1.619,1.454 1.538,1.540 1.439,1.540 L0.627,1.540 C0.527,1.540 0.446,1.454 0.446,1.349 L0.446,0.951 C0.446,0.846 0.527,0.761 0.627,0.761 L1.439,0.761 C1.538,0.761 1.619,0.846 1.619,0.951 L1.619,1.349 ZM8.748,14.473 C8.748,14.839 8.464,15.139 8.116,15.139 L2.702,15.139 C2.354,15.139 2.070,14.839 2.070,14.473 L2.070,8.917 C2.070,8.551 2.354,8.251 2.702,8.251 L8.116,8.251 C8.464,8.251 8.748,8.551 8.748,8.917 L8.748,14.473 ZM8.748,6.982 C8.748,7.348 8.464,7.648 8.116,7.648 L2.702,7.648 C2.354,7.648 2.070,7.348 2.070,6.982 L2.070,1.427 C2.070,1.060 2.354,0.761 2.702,0.761 L8.116,0.761 C8.464,0.761 8.748,1.060 8.748,1.427 L8.748,6.982 ZM10.463,14.934 C10.463,15.039 10.382,15.124 10.282,15.124 L9.470,15.124 C9.371,15.124 9.290,15.039 9.290,14.934 L9.290,14.536 C9.290,14.431 9.371,14.346 9.470,14.346 L10.282,14.346 C10.382,14.346 10.463,14.431 10.463,14.536 L10.463,14.934 ZM10.463,12.670 C10.463,12.775 10.382,12.860 10.282,12.860 L9.470,12.860 C9.371,12.860 9.290,12.775 9.290,12.670 L9.290,12.272 C9.290,12.167 9.371,12.081 9.470,12.081 L10.282,12.081 C10.382,12.081 10.463,12.167 10.463,12.272 L10.463,12.670 ZM10.463,10.406 C10.463,10.511 10.382,10.596 10.282,10.596 L9.470,10.596 C9.371,10.596 9.290,10.511 9.290,10.406 L9.290,10.008 C9.290,9.903 9.371,9.817 9.470,9.817 L10.282,9.817 C10.382,9.817 10.463,9.903 10.463,10.008 L10.463,10.406 ZM10.463,8.142 C10.463,8.247 10.382,8.332 10.282,8.332 L9.470,8.332 C9.371,8.332 9.290,8.247 9.290,8.142 L9.290,7.744 C9.290,7.639 9.371,7.553 9.470,7.553 L10.282,7.553 C10.382,7.553 10.463,7.639 10.463,7.744 L10.463,8.142 ZM10.463,5.877 C10.463,5.982 10.382,6.068 10.282,6.068 L9.470,6.068 C9.371,6.068 9.290,5.982 9.290,5.877 L9.290,5.480 C9.290,5.375 9.371,5.289 9.470,5.289 L10.282,5.289 C10.382,5.289 10.463,5.375 10.463,5.480 L10.463,5.877 ZM10.463,3.613 C10.463,3.718 10.382,3.804 10.282,3.804 L9.470,3.804 C9.371,3.804 9.290,3.718 9.290,3.613 L9.290,3.215 C9.290,3.110 9.371,3.025 9.470,3.025 L10.282,3.025 C10.382,3.025 10.463,3.110 10.463,3.215 L10.463,3.613 ZM10.463,1.349 C10.463,1.454 10.382,1.540 10.282,1.540 L9.470,1.540 C9.371,1.540 9.290,1.454 9.290,1.349 L9.290,0.951 C9.290,0.846 9.371,0.761 9.470,0.761 L10.282,0.761 C10.382,0.761 10.463,0.846 10.463,0.951 L10.463,1.349 Z"/>
</svg>