<svg 
 xmlns="http://www.w3.org/2000/svg"
 xmlns:xlink="http://www.w3.org/1999/xlink"
 width="12px" height="12px">
<path fill-rule="evenodd"  fill="rgb(133, 182, 209)"
 d="M0.001,3.229 C0.001,2.790 0.087,2.373 0.257,1.980 C0.427,1.586 0.657,1.243 0.948,0.951 C1.238,0.658 1.580,0.427 1.970,0.257 C2.360,0.087 2.781,0.001 3.232,0.001 C3.662,0.001 4.077,0.084 4.479,0.249 C4.879,0.415 5.227,0.645 5.523,0.940 C5.562,0.980 5.617,1.032 5.685,1.093 C5.752,1.156 5.817,1.219 5.880,1.281 C5.942,1.344 5.996,1.409 6.040,1.473 C6.086,1.537 6.109,1.600 6.109,1.660 C6.109,1.750 6.079,1.828 6.019,1.893 C5.988,1.934 5.925,1.963 5.830,1.983 C5.596,2.033 5.375,2.090 5.170,2.153 C4.965,2.214 4.749,2.294 4.523,2.389 C4.503,2.409 4.464,2.419 4.404,2.419 C4.344,2.419 4.280,2.392 4.212,2.340 C4.145,2.288 4.067,2.234 3.979,2.179 C3.892,2.124 3.786,2.070 3.664,2.017 C3.541,1.965 3.397,1.939 3.232,1.939 C3.057,1.939 2.890,1.972 2.732,2.039 C2.574,2.107 2.439,2.200 2.326,2.318 C2.214,2.435 2.124,2.569 2.056,2.723 C1.989,2.876 1.955,3.044 1.955,3.229 C1.955,3.435 1.998,3.623 2.087,3.793 C2.174,3.963 2.282,4.122 2.409,4.269 C2.537,4.416 2.678,4.559 2.833,4.694 C2.988,4.828 3.132,4.961 3.262,5.092 L4.614,6.427 C4.729,6.553 4.865,6.646 5.023,6.706 C5.181,6.766 5.348,6.796 5.523,6.796 C5.738,6.796 5.921,6.756 6.071,6.675 C6.221,6.596 6.336,6.556 6.417,6.556 C6.477,6.556 6.574,6.609 6.710,6.716 C6.845,6.824 6.984,6.946 7.127,7.084 C7.269,7.222 7.395,7.360 7.502,7.498 C7.609,7.635 7.663,7.741 7.663,7.816 C7.663,7.962 7.573,8.089 7.393,8.199 C7.213,8.309 7.006,8.406 6.770,8.488 C6.534,8.571 6.299,8.637 6.063,8.683 C5.829,8.732 5.648,8.755 5.523,8.755 C5.092,8.755 4.680,8.672 4.287,8.507 C3.894,8.343 3.543,8.112 3.232,7.816 L0.956,5.527 C0.650,5.231 0.415,4.882 0.250,4.479 C0.084,4.076 0.001,3.660 0.001,3.229 ZM6.477,3.245 C6.908,3.245 7.323,3.327 7.725,3.493 C8.125,3.657 8.472,3.888 8.768,4.184 L11.044,6.473 C11.350,6.769 11.584,7.118 11.750,7.519 C11.916,7.923 11.998,8.340 11.998,8.770 C11.998,9.220 11.914,9.640 11.747,10.028 C11.578,10.415 11.348,10.756 11.056,11.048 C10.762,11.342 10.418,11.573 10.023,11.743 C9.626,11.913 9.208,11.998 8.768,11.998 C8.337,11.998 7.922,11.913 7.525,11.743 C7.127,11.573 6.777,11.340 6.477,11.044 C6.437,11.004 6.384,10.956 6.315,10.897 C6.247,10.841 6.184,10.778 6.123,10.711 C6.063,10.643 6.010,10.577 5.962,10.511 C5.915,10.447 5.890,10.381 5.890,10.317 C5.890,10.227 5.924,10.156 5.988,10.107 C6.019,10.066 6.079,10.037 6.169,10.015 C6.404,9.966 6.624,9.910 6.830,9.847 C7.035,9.786 7.251,9.701 7.476,9.596 C7.536,9.576 7.579,9.565 7.603,9.565 C7.663,9.565 7.727,9.593 7.795,9.645 C7.862,9.697 7.939,9.752 8.025,9.806 C8.109,9.861 8.212,9.914 8.333,9.968 C8.452,10.020 8.598,10.046 8.768,10.046 C9.128,10.046 9.432,9.922 9.677,9.675 C9.922,9.427 10.044,9.126 10.044,8.770 C10.044,8.565 10.003,8.375 9.917,8.199 C9.831,8.024 9.721,7.865 9.586,7.723 C9.451,7.580 9.310,7.441 9.162,7.306 C9.015,7.171 8.874,7.038 8.737,6.908 L7.401,5.557 C7.134,5.312 6.828,5.187 6.477,5.182 C6.261,5.182 6.080,5.225 5.932,5.314 C5.784,5.401 5.668,5.444 5.582,5.444 C5.523,5.444 5.426,5.390 5.294,5.283 C5.161,5.176 5.023,5.053 4.880,4.916 C4.738,4.778 4.612,4.637 4.505,4.495 C4.398,4.352 4.344,4.248 4.344,4.184 C4.344,4.038 4.433,3.911 4.611,3.801 C4.789,3.691 4.994,3.594 5.230,3.511 C5.466,3.429 5.700,3.363 5.936,3.317 C6.171,3.268 6.351,3.245 6.477,3.245 Z"/>
</svg>